<svg xmlns="http://www.w3.org/2000/svg" viewBox="0 0 64 64" width="64" height="64"><circle cx="32" cy="32" r="32" fill="#F7931A"/><path fill="#fff" d="M43.6 28.3c.5-3.4-2.1-5.2-5.7-6.4l1.2-4.7-2.9-.7-1.1 4.5c-.8-.2-1.5-.4-2.3-.5l1.1-4.6-2.9-.7-1.2 4.7c-.6-.1-1.2-.3-1.8-.4v-.1l-4-1-.8 3.1s2.2.5 2.1.5c1.2.3 1.4 1.1 1.4 1.7l-1.4 5.4c.1 0 .2.1.3.1l-.3-.1-1.9 7.6c-.1.4-.5.9-1.3.7 0 0-2.1-.5-2.1-.5l-1.4 3.4 3.7.9c.7.2 1.4.4 2 .5l-1.2 4.8 2.9.7 1.2-4.7c.8.2 1.5.4 2.3.6l-1.2 4.7 2.9.7 1.2-4.8c4.9.9 8.6.6 10.2-3.9 1.3-3.6-.1-5.7-2.7-7.1 1.9-.4 3.3-1.7 3.7-4.2zm-6.6 9.3c-.9 3.6-7 1.7-9 1.2l1.6-6.3c2 .5 8.4 1.5 7.4 5.1zm.9-9.4c-.8 3.3-5.9 1.6-7.5 1.2l1.4-5.7c1.6.4 6.9 1.1 6.1 4.5z"/></svg>
