<?xml version="1.0" encoding="utf-8"?>
<svg version="1.1" id="Layer_1" xmlns="http://www.w3.org/2000/svg" xmlns:xlink="http://www.w3.org/1999/xlink" x="0px" y="0px"
	 viewBox="0 0 198 198" style="enable-background:new 0 0 198 198;" xml:space="preserve">
<style type="text/css">
	.st0{clip-path:url(#SVGID_00000155136370585676693270000010816156121930733990_);}
	.st1{fill:#0946CE;}
	.st2{fill:#3CC0FF;}
</style>
<g id="Group_2448" transform="translate(0.645 0.645)">
	<g>
		<defs>
			<rect id="SVGID_1_" x="-0.6" y="-0.6" width="198" height="198"/>
		</defs>
		<clipPath id="SVGID_00000078039732049158128860000009401136716549009301_">
			<use xlink:href="#SVGID_1_"  style="overflow:visible;"/>
		</clipPath>

			<g id="Group_2447" transform="translate(-0.645 -0.645)" style="clip-path:url(#SVGID_00000078039732049158128860000009401136716549009301_);">
			<path id="Path_18917" class="st1" d="M175.6,37.5c1.2,6.1,1.7,12.2,1.7,18.4c0,60.6-55,109.8-122.9,109.8
				c-10.4,0-20.7-1.2-30.8-3.5c35,41.5,97.1,46.7,138.5,11.6C202.7,139.4,208.7,79,175.6,37.5"/>
			<path id="Path_18918" class="st2" d="M45.6,98.9c0-24.5,16.7-45.8,40.5-51.7c-5.2-1-10.5-1.6-15.9-1.6c-38.5,0-69.6,26.4-69.6,59
				C0.6,116,4.4,127,11.3,136c15.2,6.6,31.6,9.9,48.1,9.9c4.4,0,8.9-0.3,13.3-0.7C55.9,135.8,45.6,118.1,45.6,98.9"/>
			<path id="Path_18919" class="st2" d="M70.3,34.2c45.2,0,81.9,29,81.9,64.7c0,0.1,0,0.2,0,0.3c8.9-13.3,13.6-29,13.7-45
				c0-11.5-2.5-22.9-7.3-33.4C115.5-12.2,53.8-4,20.8,39.1c-3.5,4.6-6.6,9.5-9.3,14.7C26.4,41.7,47.2,34.2,70.3,34.2"/>
			</g>
	</g>
</g>
</svg>
